<svg width="172" height="31" viewBox="0 0 172 31" fill="none" xmlns="http://www.w3.org/2000/svg">
<g clip-path="url(#clip0_1447_1830)">
<path fill-rule="evenodd" clip-rule="evenodd" d="M91.37 6.90331C91.37 4.46247 92.7013 3.58105 94.5998 3.58105C96.4982 3.58105 97.8296 4.46247 97.8296 6.90331V10.4475C97.8296 12.8883 96.4982 13.7697 94.5998 13.7697C92.7013 13.7697 91.37 12.8945 91.37 10.4475V6.90331ZM93.3239 10.694C93.3239 11.7912 93.817 12.0932 94.5998 12.0932C95.3826 12.0932 95.8757 11.7912 95.8757 10.694V6.65676C95.8757 5.55962 95.3826 5.25759 94.5998 5.25759C93.817 5.25759 93.3239 5.55962 93.3239 6.65676V10.694Z" fill="#231F20"/>
<path d="M81.6436 12.8945C81.1197 13.4677 80.5526 13.856 79.8191 13.856C77.9207 13.856 76.5955 12.9808 76.5955 10.5338V6.9896C76.5955 4.54876 77.9268 3.66734 79.8191 3.66734C81.81 3.66734 82.8886 4.77681 82.9626 7.03275H81.0087C81.0087 5.75685 80.5279 5.34388 79.8191 5.34388C79.0425 5.34388 78.5432 5.6459 78.5432 6.74305V10.7803C78.5432 11.8774 79.0363 12.1795 79.8191 12.1795C80.5587 12.1795 81.0087 11.6556 81.0087 10.805V10.2071H79.6342V8.64148H82.9564V13.7204H81.9394L81.6436 12.9006V12.8945Z" fill="#231F20"/>
<path fill-rule="evenodd" clip-rule="evenodd" d="M56.1318 3.71665C58.2275 3.71665 59.4294 4.56725 59.4294 6.26844C59.4294 7.13137 58.9857 7.84636 58.1659 8.32714C59.2384 8.98666 59.6698 9.53523 59.6698 10.768C59.6698 12.7342 58.3076 13.628 56.2428 13.628H53.3828V3.71665H56.1318ZM55.3429 7.64296H56.0209C56.8961 7.64296 57.4755 7.14986 57.4755 6.47801C57.4755 5.75069 57.0379 5.28225 56.1195 5.28225H55.3429V7.64296ZM55.3429 12.0624H56.1627C57.1797 12.0624 57.7221 11.483 57.7221 10.6262C57.7221 9.677 57.0441 9.20855 56.0209 9.20855H55.3429V12.0624Z" fill="#231F20"/>
<path fill-rule="evenodd" clip-rule="evenodd" d="M60.052 13.628L62.5853 3.71665H65.0939L67.5533 13.628H65.6856L65.1925 11.5384H62.4867L61.9381 13.628H60.052ZM62.838 9.86807H64.7734L63.8242 5.86164H63.7995L62.838 9.86807Z" fill="#231F20"/>
<path d="M68.4716 3.71665V13.628H70.253V7.22999H70.2838L73.2732 13.628H75.1346V3.71665H73.3533V9.5907H73.3287L70.6105 3.71665H68.4716Z" fill="#231F20"/>
<path d="M84.331 3.71665V13.628H86.2849V10.5954L87.0492 9.46743L89.0894 13.628H91.2775L88.3497 7.71076L90.9816 3.71665H88.8428L86.3157 7.80938H86.2849V3.71665H84.331Z" fill="#231F20"/>
<path d="M99.013 3.71665V13.628H100.967V10.5954L101.731 9.46743L103.771 13.628H105.966L103.032 7.71076L105.67 3.71665H103.531L100.998 7.80938H100.967V3.71665H99.013Z" fill="#231F20"/>
<path d="M110.397 3.70431V10.6632C110.397 11.6124 110.81 12.1117 111.729 12.1117C112.647 12.1117 113.079 11.6186 113.079 10.6632V3.70431H114.983V10.6755C114.983 12.8636 113.689 13.7882 111.729 13.7882C109.769 13.7882 108.487 12.8636 108.487 10.6755V3.70431H110.397Z" fill="#231F20"/>
<path d="M116.345 3.70431V13.6526H118.077V7.22997H118.108L121.018 13.6526H122.836V3.70431H121.098V9.60302H121.073L118.423 3.70431H116.345Z" fill="#231F20"/>
<path d="M126.195 3.70431H124.297V13.6526H126.195V3.70431Z" fill="#231F20"/>
<path d="M128.833 3.70431H126.959L129.511 13.6526H131.668L134.208 3.70431H132.347L130.615 10.8173H130.584L128.833 3.70431Z" fill="#231F20"/>
<path d="M134.966 13.6526V3.70431H140.181V5.38702H136.871V7.67376H139.392V9.35647H136.871V11.9761H140.316V13.6526H134.966Z" fill="#231F20"/>
<path fill-rule="evenodd" clip-rule="evenodd" d="M143.965 9.60302L145.617 13.6526H147.657L145.783 9.2147C146.844 8.81406 147.281 7.92031 147.281 6.6814C147.281 4.80762 146.196 3.70431 143.91 3.70431H141.155V13.6526H143.053V9.60302H143.965ZM144.033 8.03126H143.053V5.27607H144.033C144.871 5.27607 145.383 5.68288 145.383 6.65058C145.383 7.61829 144.871 8.03126 144.033 8.03126Z" fill="#231F20"/>
<path d="M152.329 6.47801C152.009 5.54113 151.596 5.14048 150.936 5.14048C150.277 5.14048 149.889 5.55345 149.889 6.23146C149.889 6.84491 150.601 7.22676 151.442 7.67766C152.655 8.32768 154.135 9.12123 154.135 10.9591C154.135 12.6664 152.964 13.8005 150.961 13.8005C149.42 13.8005 148.224 12.9623 147.713 11.0022L149.587 10.6016C149.808 11.8035 150.493 12.2288 151.06 12.2288C151.719 12.2288 152.231 11.785 152.231 11.0453C152.231 10.2005 151.368 9.73036 150.419 9.21397C149.265 8.58499 147.984 7.88744 147.984 6.3609C147.984 4.64738 149.007 3.58105 150.98 3.58105C152.675 3.58105 153.71 4.58575 154.037 5.99108L152.329 6.49034V6.47801Z" fill="#231F20"/>
<path d="M154.752 3.70431H156.656V13.6526H154.752V3.70431Z" fill="#231F20"/>
<path d="M163.701 3.70431V5.38702H161.483V13.6526H159.578V5.38702H157.359V3.70431H163.701Z" fill="#231F20"/>
<path d="M169.471 3.70431L167.856 7.71691L166.192 3.70431H164.164L166.882 9.62767V13.6526H168.78V9.62767L171.499 3.70431H169.471Z" fill="#231F20"/>
<path d="M59.263 25.0802C59.1582 25.3637 58.998 25.5918 58.7946 25.7767C58.5912 25.9616 58.3446 26.0972 58.0549 26.1897C57.7652 26.2821 57.4385 26.3253 57.0749 26.3253C56.853 26.3253 56.6373 26.2945 56.4277 26.239C56.212 26.1773 56.0086 26.1034 55.8175 26.0048C55.6264 25.9061 55.4538 25.7952 55.2936 25.6719C55.1395 25.5486 55.0039 25.4192 54.8929 25.2836V26.2267H53.4629V19.4096H54.8929V23.5269C54.8929 23.6872 54.9422 23.8659 55.0408 24.0509C55.1395 24.2419 55.2751 24.4145 55.4538 24.5748C55.6264 24.735 55.836 24.8706 56.0825 24.9816C56.3229 25.0925 56.5879 25.148 56.8715 25.148C57.192 25.148 57.4632 25.0679 57.6789 24.9014C57.8947 24.735 57.9994 24.47 57.9994 24.1063V19.4034H59.4233V24.0878C59.4233 24.4638 59.3678 24.7967 59.263 25.074V25.0802Z" fill="#231F20"/>
<path d="M64.9522 23.1694V26.2267H66.3698V23.0523C66.3698 22.664 66.3082 22.3312 66.1849 22.0538C66.0616 21.7764 65.889 21.5484 65.6672 21.3696C65.4453 21.1909 65.1864 21.0553 64.8844 20.969C64.5885 20.8827 64.2618 20.8395 63.9105 20.8395C63.7009 20.8395 63.4975 20.8642 63.2941 20.9073C63.0907 20.9505 62.8996 21.0183 62.7209 21.0923C62.5483 21.1724 62.3819 21.2648 62.2339 21.3696C62.086 21.4744 61.9566 21.5854 61.8456 21.7086V19.4096H60.4156V26.2267H61.8456V23.7365C61.8456 23.5639 61.8949 23.3852 62.0059 23.1941C62.1107 23.003 62.2586 22.8304 62.4435 22.6702C62.6284 22.5099 62.838 22.3743 63.0784 22.2695C63.3188 22.1648 63.5653 22.1093 63.8242 22.1093C64.1447 22.1093 64.4159 22.1956 64.6316 22.362C64.8474 22.5284 64.9522 22.7935 64.9522 23.1694Z" fill="#231F20"/>
<path d="M66.0431 19.4096H62.4004V20.5807H66.0431V19.4096Z" fill="#231F20"/>
<path d="M68.8415 26.2266V21.4127C68.8415 21.2648 68.7983 21.1292 68.712 21.0121C68.6258 20.895 68.5025 20.7964 68.3422 20.7224C68.182 20.6484 67.9847 20.5991 67.7505 20.5745C67.5163 20.5498 67.2512 20.5683 66.9554 20.6176V19.428C67.4115 19.3479 67.843 19.3294 68.2498 19.3664C68.6566 19.4034 69.0079 19.4958 69.3038 19.6437C69.5996 19.7917 69.8338 19.9951 70.0126 20.2478C70.1852 20.5067 70.2715 20.8087 70.2715 21.1662V26.2266H68.8415Z" fill="#231F20"/>
<path d="M76.8913 24.47C77.0639 24.02 77.144 23.4653 77.144 22.8119L77.1379 22.8181C77.1379 22.1709 77.0516 21.6223 76.8851 21.1724C76.7187 20.7224 76.4907 20.3587 76.201 20.0752C75.9174 19.7978 75.5846 19.5944 75.2025 19.4712C74.8203 19.3479 74.4197 19.2862 74.0005 19.2862C73.1992 19.2862 72.5397 19.4835 72.0281 19.8841C71.5165 20.2848 71.1714 20.8642 70.9988 21.6223H72.5151C72.6568 21.2278 72.8602 20.9443 73.1314 20.7594C73.4026 20.5745 73.6923 20.482 74.0067 20.482C74.5306 20.482 74.9436 20.6669 75.2518 21.0429C75.5599 21.4189 75.714 21.9983 75.714 22.8119C75.714 23.6255 75.5599 24.2172 75.2518 24.5932C74.9436 24.9692 74.5306 25.1541 74.0067 25.1541C73.6923 25.1541 73.4026 25.0617 73.1314 24.8829C72.8602 24.698 72.6568 24.4083 72.5151 24.0138H70.9988C71.1714 24.7843 71.5165 25.3637 72.0343 25.7582C72.552 26.1465 73.2116 26.3437 74.0067 26.3437C74.4258 26.3437 74.8265 26.2821 75.2086 26.1588C75.5846 26.0355 75.9174 25.8383 76.2071 25.5609C76.4968 25.2836 76.7249 24.9199 76.8913 24.47Z" fill="#231F20"/>
<path d="M76.8975 17.6344H71.5165V18.5528H76.8975V17.6344Z" fill="#231F20"/>
<path d="M82.4264 21.5237V26.2267H83.8317V21.5422C83.8317 20.7841 83.6221 20.2293 83.203 19.8595C82.7839 19.4958 82.2106 19.3109 81.4833 19.3109C81.2676 19.3109 81.0518 19.3356 80.8361 19.3972C80.6265 19.4589 80.4231 19.5328 80.2321 19.6314C80.041 19.7239 79.8622 19.8349 79.7082 19.9581C79.5541 20.0814 79.4184 20.2047 79.3075 20.3403V19.4096H77.8775V26.2267H79.3075V22.0969C79.3075 21.9428 79.3568 21.7703 79.4554 21.5792C79.5541 21.3943 79.6897 21.2155 79.8684 21.0553C80.0472 20.895 80.2567 20.7594 80.4971 20.6485C80.7437 20.5375 81.0087 20.482 81.2922 20.482C81.6127 20.482 81.8839 20.5622 82.0997 20.7286C82.3154 20.895 82.4264 21.1539 82.4264 21.5237Z" fill="#231F20"/>
<path fill-rule="evenodd" clip-rule="evenodd" d="M87.684 26.2945C86.6793 26.3191 85.915 26.1465 85.385 25.7767C84.861 25.4069 84.6022 24.8275 84.6207 24.0447C84.6268 23.8536 84.6638 23.6749 84.7316 23.5084C84.7994 23.342 84.8857 23.1818 84.9966 23.04C85.1014 22.8982 85.2309 22.775 85.3788 22.6763C85.5267 22.5777 85.6747 22.5037 85.8288 22.4483C85.7116 22.4236 85.5884 22.3743 85.4651 22.3065C85.3418 22.2387 85.2309 22.1524 85.1322 22.0476C85.0336 21.9367 84.9535 21.8072 84.8857 21.6593C84.8179 21.5114 84.7871 21.3388 84.7871 21.1416C84.7871 20.7348 84.9042 20.3896 85.1446 20.0937C85.385 19.804 85.7055 19.5945 86.1123 19.465C86.3403 19.3972 86.6054 19.3602 86.9197 19.3541C87.2341 19.3541 87.5299 19.3664 87.8135 19.4095V20.5992C87.5916 20.556 87.3758 20.5313 87.1848 20.5252C86.9937 20.5252 86.8211 20.5437 86.6732 20.5868C86.5314 20.63 86.4143 20.6978 86.3342 20.7841C86.2479 20.8704 86.2109 20.9875 86.2109 21.1231C86.2109 21.2587 86.2417 21.3635 86.3157 21.4374C86.3896 21.5175 86.4759 21.5792 86.5931 21.6223C86.704 21.6655 86.8396 21.6963 86.9814 21.7086C87.1293 21.721 87.2772 21.7271 87.4252 21.7271H89.4592V19.3787H90.883V26.1958L87.6902 26.2636L87.684 26.2945ZM89.453 22.9537H87.5916C87.0738 22.9537 86.6917 23.0585 86.439 23.2619C86.1863 23.4653 86.0568 23.7303 86.0568 24.0447C86.0568 24.2604 86.1 24.4392 86.1986 24.5748C86.291 24.7104 86.4205 24.8152 86.5869 24.8953C86.7471 24.9754 86.9444 25.0247 87.1601 25.0555C87.382 25.0864 87.6101 25.0987 87.8628 25.0925L89.453 25.0555V22.9537Z" fill="#231F20"/>
<path d="M93.3424 21.4127V26.2266H94.7662V21.1662C94.7662 20.8087 94.6799 20.5067 94.5073 20.2478C94.3347 19.9951 94.1005 19.7917 93.7985 19.6437C93.5026 19.4958 93.1513 19.4034 92.7445 19.3664C92.3377 19.3294 91.9062 19.3479 91.4501 19.428V20.6176C91.7459 20.5683 92.011 20.5498 92.2452 20.5745C92.4856 20.5991 92.6828 20.6484 92.8431 20.7224C93.0033 20.7964 93.1266 20.895 93.2129 21.0121C93.2992 21.1292 93.3424 21.2648 93.3424 21.4127Z" fill="#231F20"/>
<path d="M100.246 26.239V22.9167C100.147 22.9722 100.018 23.0154 99.8636 23.0523C99.7033 23.0893 99.5308 23.1201 99.3397 23.1448C99.1486 23.1694 98.9514 23.1879 98.7541 23.2064C98.5569 23.2249 98.372 23.2372 98.2055 23.2372C98.0576 23.2496 97.9035 23.2681 97.7556 23.305C97.6015 23.3359 97.4659 23.3913 97.3488 23.4653C97.2255 23.5393 97.1269 23.6379 97.0468 23.755C96.9728 23.8721 96.9296 24.0139 96.9296 24.1865C96.9296 24.4453 97.0036 24.6426 97.1454 24.772C97.2871 24.9015 97.4659 24.9877 97.6878 25.0247C97.9035 25.0617 98.1439 25.0679 98.4028 25.0371C98.6617 25.0062 98.9082 24.9631 99.1486 24.9015V26.1835C98.6986 26.2513 98.2487 26.2821 97.8172 26.2821C97.3858 26.2821 96.9913 26.2143 96.6523 26.0787C96.3133 25.9431 96.0359 25.7274 95.8263 25.4315C95.6168 25.1295 95.5182 24.7165 95.5182 24.1865C95.5182 23.5331 95.7092 23.0215 96.0975 22.6579C96.4859 22.2942 97.0468 22.0785 97.7802 22.0045C98.0083 21.9798 98.261 21.9675 98.5384 21.9675C98.8158 21.9675 99.0808 21.949 99.3335 21.912C99.5801 21.8812 99.7896 21.8134 99.956 21.721C100.122 21.6285 100.209 21.4744 100.209 21.271C100.209 21.1416 100.172 21.0306 100.092 20.932C100.012 20.8334 99.9067 20.7471 99.7711 20.6793C99.6355 20.6115 99.4814 20.5622 99.3089 20.5252C99.1301 20.4882 98.9514 20.4697 98.7541 20.4697C98.5569 20.4697 98.3781 20.4944 98.1994 20.5314C98.0145 20.5745 97.848 20.6361 97.7001 20.7163C97.546 20.7964 97.4228 20.9012 97.318 21.0245C97.2132 21.1477 97.1454 21.2957 97.1146 21.4621H95.6599C95.7277 21.0553 95.8572 20.7163 96.0544 20.4327C96.2578 20.1554 96.4982 19.9273 96.7879 19.7547C97.0776 19.5821 97.3919 19.4589 97.7371 19.3849C98.0761 19.3109 98.4274 19.274 98.7726 19.274C99.1178 19.274 99.4629 19.3109 99.8081 19.3787C100.153 19.4465 100.468 19.5637 100.751 19.7301C101.029 19.8965 101.257 20.1122 101.429 20.3896C101.602 20.6608 101.688 20.9998 101.688 21.4066V26.2328H100.258L100.246 26.239Z" fill="#231F20"/>
<path d="M98.4952 16.8824V18.5466H103.543V17.6344H99.9191V16.8824H98.4952Z" fill="#231F20"/>
<path fill-rule="evenodd" clip-rule="evenodd" d="M105.516 26.2945C104.517 26.3191 103.747 26.1465 103.223 25.7767C102.693 25.4069 102.44 24.8275 102.459 24.0447C102.459 23.8536 102.502 23.6749 102.569 23.5084C102.637 23.342 102.724 23.1818 102.835 23.04C102.945 22.8982 103.069 22.775 103.217 22.6763C103.365 22.5777 103.513 22.5037 103.667 22.4483C103.55 22.4236 103.426 22.3743 103.303 22.3065C103.18 22.2387 103.069 22.1524 102.97 22.0476C102.865 21.9367 102.785 21.8072 102.724 21.6593C102.656 21.5114 102.625 21.3388 102.625 21.1416C102.625 20.7348 102.742 20.3896 102.982 20.0937C103.223 19.804 103.543 19.5945 103.95 19.465C104.178 19.3972 104.443 19.3602 104.758 19.3541C105.072 19.3541 105.368 19.3664 105.658 19.4095V20.5992C105.429 20.556 105.22 20.5313 105.029 20.5252C104.838 20.5252 104.665 20.5437 104.517 20.5868C104.375 20.63 104.258 20.6978 104.172 20.7841C104.086 20.8704 104.049 20.9875 104.049 21.1231C104.049 21.2587 104.086 21.3635 104.154 21.4374C104.228 21.5175 104.314 21.5792 104.431 21.6223C104.542 21.6655 104.671 21.6963 104.819 21.7086C104.967 21.721 105.115 21.7271 105.263 21.7271H107.297V19.3787H108.721V26.1958L105.528 26.2636L105.516 26.2945ZM107.285 22.9537H105.423C104.906 22.9537 104.523 23.0585 104.271 23.2619C104.018 23.4653 103.889 23.7303 103.889 24.0447C103.889 24.2604 103.938 24.4392 104.03 24.5748C104.123 24.7104 104.252 24.8152 104.419 24.8953C104.585 24.9754 104.776 25.0247 104.992 25.0555C105.214 25.0864 105.442 25.0987 105.694 25.0925L107.285 25.0555V22.9537Z" fill="#231F20"/>
<path d="M114.065 21.6716V26.2266L114.077 26.2328H115.501V21.5792C115.501 21.1847 115.421 20.8395 115.261 20.5498C115.1 20.2663 114.885 20.0259 114.613 19.841C114.342 19.6561 114.034 19.5205 113.677 19.428C113.325 19.3417 112.943 19.2986 112.555 19.2986C112.166 19.2986 111.797 19.3417 111.458 19.428C111.112 19.5143 110.81 19.6438 110.539 19.8102C110.268 19.9828 110.046 20.1923 109.867 20.445C109.689 20.6978 109.571 20.9875 109.516 21.3141C109.645 21.3819 109.763 21.4497 109.867 21.5114C109.954 21.5668 110.028 21.6223 110.102 21.684C110.176 21.7456 110.213 21.8011 110.213 21.8442C110.213 21.912 110.188 21.9798 110.132 22.0353C110.077 22.0908 110.021 22.1462 109.954 22.2079C109.886 22.2695 109.83 22.3373 109.775 22.4051C109.719 22.4729 109.695 22.5592 109.695 22.6578V26.239H111.125V22.6578C111.125 22.553 111.149 22.4606 111.193 22.3866C111.236 22.3065 111.285 22.2325 111.334 22.1647C111.39 22.0969 111.439 22.023 111.482 21.9552C111.525 21.8812 111.55 21.8072 111.55 21.7148C111.55 21.5977 111.495 21.4867 111.39 21.3819C111.285 21.271 111.168 21.1847 111.051 21.1046C111.1 21.0183 111.168 20.9443 111.26 20.8703C111.353 20.7964 111.464 20.7347 111.593 20.6731C111.723 20.6176 111.864 20.5683 112.025 20.5375C112.185 20.5067 112.351 20.4882 112.53 20.4882C112.752 20.4882 112.962 20.5067 113.153 20.556C113.344 20.6053 113.504 20.6731 113.64 20.7717C113.775 20.8703 113.88 20.9936 113.954 21.1415C114.028 21.2895 114.065 21.4682 114.065 21.6716Z" fill="#231F20"/>
<path d="M122.146 23.9892C122.146 24.4515 122.059 24.8337 121.887 25.1357C121.714 25.4377 121.486 25.6781 121.202 25.8568C120.919 26.0356 120.598 26.1589 120.235 26.2328C119.877 26.3068 119.507 26.3438 119.125 26.3438C118.743 26.3438 118.386 26.3068 118.028 26.2328C117.677 26.1589 117.362 26.0233 117.085 25.826C116.808 25.6288 116.586 25.3576 116.413 25.0124C116.241 24.6672 116.154 24.2173 116.142 23.6749H117.591C117.591 23.9769 117.634 24.2173 117.726 24.4084C117.819 24.5994 117.936 24.7535 118.084 24.8645C118.232 24.9754 118.392 25.0494 118.577 25.0925C118.762 25.1357 118.94 25.1542 119.125 25.1542C119.335 25.1542 119.538 25.1357 119.729 25.0987C119.92 25.0617 120.087 25.0001 120.235 24.9138C120.383 24.8275 120.5 24.7165 120.586 24.5748C120.672 24.433 120.722 24.2604 120.722 24.0447C120.722 23.8659 120.679 23.718 120.592 23.6009C120.506 23.4838 120.395 23.3913 120.259 23.3235C120.124 23.2557 119.976 23.2003 119.803 23.1633C119.637 23.1263 119.47 23.1016 119.31 23.0832C118.91 23.0462 118.534 23.003 118.17 22.9475C117.812 22.8982 117.492 22.8119 117.221 22.6948C116.943 22.5777 116.728 22.4051 116.561 22.1771C116.395 21.9552 116.315 21.647 116.315 21.2587C116.315 20.969 116.389 20.7039 116.537 20.4574C116.684 20.2108 116.888 20.0013 117.134 19.8287C117.381 19.6561 117.677 19.5205 118.016 19.4219C118.355 19.3233 118.712 19.274 119.094 19.274C119.452 19.274 119.803 19.3109 120.148 19.3849C120.494 19.4589 120.808 19.5821 121.085 19.7547C121.363 19.9273 121.591 20.1554 121.77 20.4327C121.948 20.7101 122.047 21.0553 122.059 21.4621H120.629C120.611 21.2772 120.555 21.1231 120.45 20.9998C120.352 20.8765 120.222 20.7717 120.075 20.6916C119.927 20.6115 119.766 20.556 119.581 20.519C119.396 20.4821 119.224 20.4697 119.057 20.4697C118.891 20.4697 118.725 20.4882 118.571 20.5129C118.41 20.5437 118.269 20.5868 118.145 20.6485C118.022 20.7101 117.917 20.7841 117.843 20.8704C117.769 20.9567 117.732 21.0553 117.732 21.1662C117.732 21.2772 117.782 21.3758 117.886 21.4498C117.991 21.5237 118.127 21.5792 118.293 21.6223C118.46 21.6655 118.651 21.6963 118.86 21.7148C119.07 21.7333 119.286 21.7579 119.501 21.7826C119.834 21.8134 120.161 21.8689 120.481 21.9429C120.802 22.0168 121.079 22.1339 121.326 22.2942C121.572 22.4544 121.77 22.6702 121.917 22.9414C122.065 23.2126 122.139 23.5578 122.139 23.9769L122.146 23.9892Z" fill="#231F20"/>
<path d="M120.475 27.6566V28.9572H121.905V26.7321H119.816V27.6566H120.475Z" fill="#231F20"/>
<path d="M128.303 21.8627C128.334 22.1709 128.34 22.4976 128.334 22.8304C128.322 23.1694 128.272 23.4961 128.186 23.8166C128.1 24.1371 127.983 24.4453 127.828 24.735C127.674 25.0247 127.471 25.2836 127.218 25.4993C126.972 25.7212 126.67 25.8938 126.325 26.0232C125.973 26.1527 125.566 26.2205 125.098 26.2205H124.149L122.361 20.7101L123.551 19.7917L125.221 24.9384H125.24C125.554 24.9384 125.819 24.8583 126.041 24.698C126.263 24.5378 126.435 24.322 126.571 24.0631C126.707 23.7981 126.799 23.5022 126.848 23.1694C126.898 22.8366 126.91 22.4976 126.879 22.1524C126.83 21.5545 126.608 21.1169 126.207 20.8518C125.807 20.5868 125.197 20.5067 124.383 20.6299V19.354C124.993 19.2739 125.542 19.2739 126.004 19.354C126.472 19.4403 126.867 19.5944 127.2 19.8225C127.526 20.0444 127.779 20.3341 127.964 20.6854C128.149 21.0367 128.26 21.4251 128.303 21.8565V21.8627Z" fill="#231F20"/>
<path d="M129.474 19.4034H130.904V26.2205H129.474V19.4034Z" fill="#231F20"/>
<path d="M136.76 26.2267V21.5237C136.76 21.1539 136.655 20.895 136.439 20.7286C136.224 20.5622 135.952 20.482 135.632 20.482C135.348 20.482 135.083 20.5375 134.843 20.6485C134.602 20.7594 134.393 20.895 134.214 21.0553C134.042 21.2155 133.9 21.3943 133.801 21.5792C133.703 21.7703 133.653 21.9428 133.653 22.0969V26.2267H132.223V19.4096H133.653V20.3403C133.764 20.2047 133.9 20.0814 134.054 19.9581C134.208 19.8349 134.387 19.7239 134.578 19.6314C134.769 19.5328 134.972 19.4589 135.182 19.3972C135.398 19.3356 135.613 19.3109 135.835 19.3109C136.563 19.3109 137.136 19.4958 137.555 19.8595C137.974 20.2293 138.184 20.7841 138.184 21.5422V26.2267H136.76Z" fill="#231F20"/>
<path d="M144.785 26.2267H145.944L147.848 19.4034H146.418L145.278 23.9276L143.842 19.4034H142.683L141.241 23.9276L140.101 19.4034H138.677L140.587 26.2267H141.74L143.263 21.5237L144.785 26.2267Z" fill="#231F20"/>
<g clip-path="url(#clip1_1447_1830)">
<path d="M43.1596 7.57204L35.7342 -0.0585938H7.40707L0 7.57204L21.5175 30.0205L43.1596 7.57204Z" fill="#9BA8AD"/>
<path d="M0.875 7.58677L7.95588 0.461914H35.3301L42.4147 7.58677H0.875Z" fill="#C8CDCF"/>
<path d="M35.332 0.461843L35.7352 -0.0585938L43.1606 7.57204H42.0757L35.332 0.461843Z" fill="#DDDFE1"/>
<path d="M42.075 7.57211L7.95703 0.461914H35.3313L42.075 7.57211Z" fill="#BAC3C7"/>
<path d="M0.875 7.64189L21.3773 27.807L42.4147 7.58691L0.875 7.64189Z" fill="#C8CDCF"/>
<path d="M43.161 7.57227H42.0762L19.8477 25.5713L20.6613 27.7997L21.5189 30.0207L43.161 7.57227Z" fill="white"/>
<path d="M42.0739 7.57227L38.024 10.8452C38.024 10.8452 27.0875 10.8452 20.9522 12.3258C14.8792 13.7919 10.2173 16.8412 10.2173 16.8412L0.816406 7.58693L42.0739 7.57227Z" fill="#BAC3C7"/>
<path d="M21.1992 28.8186L21.5181 30.0207L43.1602 7.57227L21.1992 28.8186Z" fill="#BAC3C7"/>
<path d="M29.4012 17.9586L13.909 9.95775L21.5177 30.0202L12.498 9.95775L9.92144 12.8605L11.3435 9.07814L0.121094 7.57914H11.1456L8.51406 2.03758L12.2524 6.61523L17.2845 0.234375L13.9237 6.5236L24.4204 0.98571L14.9316 7.57914H42.753L14.9316 8.92788L29.4012 17.9586Z" fill="white"/>
</g>
</g>
<defs>
<clipPath id="clip0_1447_1830">
<rect width="171.5" height="30.0791" fill="white"/>
</clipPath>
<clipPath id="clip1_1447_1830">
<rect width="43.1596" height="30.0791" fill="white" transform="translate(0 -0.0585938)"/>
</clipPath>
</defs>
</svg>
